<svg width="300" height="100" viewBox="0 0 300 100" fill="none" xmlns="http://www.w3.org/2000/svg">
<path d="M186.122 65.1805H185.658C185.193 65.1805 184.813 64.8028 184.813 64.3411V36.5599C184.813 36.0983 185.193 35.7207 185.658 35.7207H186.122C186.587 35.7207 186.967 36.0983 186.967 36.5599V64.3411C186.967 64.8028 186.587 65.1805 186.122 65.1805Z" fill="black"/>
<path d="M128.969 65.1805H129.434C129.898 65.1805 130.278 64.8028 130.278 64.3411V36.5599C130.278 36.0983 129.898 35.7207 129.434 35.7207H128.969C128.504 35.7207 128.124 36.0983 128.124 36.5599V64.3411C128.124 64.8028 128.504 65.1805 128.969 65.1805Z" fill="black"/>
<path d="M165.423 36.7698C165.423 36.7278 165.423 36.7278 165.423 36.6859C165.381 36.4341 165.297 36.1823 165.086 35.9725C165.043 35.9303 164.959 35.8884 164.917 35.8465C164.917 35.8465 164.917 35.8465 164.874 35.8465C164.832 35.8046 164.748 35.8046 164.705 35.7626H164.663C164.621 35.7626 164.579 35.7207 164.494 35.7207C164.452 35.7207 164.452 35.7207 164.41 35.7207C164.367 35.7207 164.325 35.7207 164.283 35.7207C164.241 35.7207 164.24 35.7207 164.198 35.7207C164.156 35.7207 164.114 35.7207 164.072 35.7207H164.029C163.987 35.7207 163.903 35.7626 163.86 35.7626C163.86 35.7626 163.818 35.7626 163.818 35.8046C163.776 35.8465 163.734 35.8465 163.692 35.8884C163.649 35.8884 163.649 35.9303 163.607 35.9303C163.565 35.9725 163.523 35.9725 163.523 36.0144C163.48 36.0563 163.48 36.0563 163.48 36.0983C163.438 36.1402 163.438 36.1402 163.396 36.1823L146.795 62.0332L138.473 49.1077C138.135 48.604 137.459 48.4363 136.952 48.7719C136.445 49.1077 136.276 49.7792 136.614 50.2828L145.865 64.677C145.907 64.7189 145.907 64.7608 145.95 64.7608C145.95 64.8028 145.992 64.8028 145.992 64.8449C146.034 64.8868 146.034 64.8868 146.077 64.9288C146.119 64.9707 146.119 64.9707 146.161 65.0126C146.203 65.0126 146.203 65.0545 146.246 65.0545C146.288 65.0545 146.33 65.0967 146.33 65.0967C146.372 65.0967 146.415 65.1386 146.457 65.1386C146.499 65.1386 146.499 65.1386 146.541 65.1805C146.583 65.1805 146.626 65.1805 146.668 65.1805C146.71 65.1805 146.71 65.1805 146.752 65.1805C146.795 65.1805 146.837 65.1805 146.879 65.1805C146.921 65.1805 146.921 65.1805 146.964 65.1805C147.006 65.1805 147.048 65.1805 147.09 65.1386C147.132 65.1386 147.132 65.1386 147.175 65.0967C147.217 65.0967 147.259 65.0545 147.301 65.0126C147.301 65.0126 147.344 65.0126 147.344 64.9707C147.386 64.9288 147.428 64.9288 147.47 64.8868L147.513 64.8449C147.555 64.8028 147.555 64.8028 147.597 64.7608C147.64 64.7189 147.64 64.7189 147.682 64.677L163.185 40.5467V64.0893C163.185 64.677 163.692 65.1805 164.283 65.1805C164.874 65.1805 165.381 64.677 165.381 64.0893L165.423 36.7698Z" fill="black"/>
<path d="M234.954 54.7322H235.462C235.926 54.7322 236.307 54.3546 236.307 53.893V36.5191C236.307 36.0575 235.926 35.6797 235.462 35.6797H234.954C234.489 35.6797 234.109 36.0575 234.109 36.5191V53.851C234.109 54.3546 234.489 54.7322 234.954 54.7322Z" fill="black"/>
<path d="M236.011 63.3336L208.51 36.0138C208.088 35.5943 207.37 35.5943 206.947 36.0138C206.736 36.2237 206.609 36.5174 206.609 36.8113V64.089C206.609 64.6764 207.116 65.18 207.708 65.18C208.299 65.18 208.806 64.6764 208.806 64.089V39.413L234.405 64.8443C234.826 65.264 235.546 65.264 235.967 64.8443C236.432 64.4246 236.432 63.7531 236.011 63.3336Z" fill="black"/>
<path d="M112.705 63.5842L107.256 53.0927C106.96 52.5472 106.327 52.3374 105.778 52.6311C105.229 52.925 105.017 53.5544 105.313 54.1001L105.735 54.9393H89.3876L98.5542 37.2717C98.8499 36.7262 98.6388 36.0967 98.0896 35.8029C97.5404 35.5092 96.8646 35.7189 96.6111 36.2646L82.4601 63.5422C82.1644 64.0877 82.3756 64.7173 82.9247 65.011C83.4739 65.3047 84.1073 65.0949 84.4032 64.5494L88.2472 57.1215H106.834L110.678 64.5494C110.973 65.0949 111.607 65.3047 112.156 65.011C112.79 64.7592 113.001 64.1297 112.705 63.5842Z" fill="black"/>
<path d="M66.5772 63.2093L44.6957 48.7311V36.7709C44.6957 36.1833 44.1889 35.6797 43.5974 35.6797C43.006 35.6797 42.499 36.1833 42.499 36.7709V64.0485C42.499 64.636 43.006 65.1397 43.5974 65.1397C44.1889 65.1397 44.6957 64.636 44.6957 64.0485V51.333L65.352 65.0137C65.859 65.3494 66.5348 65.2236 66.8729 64.72V64.6781C67.2107 64.2165 67.084 63.545 66.5772 63.2093Z" fill="black"/>
<path d="M52.3839 45.4529L52.6372 45.8307C52.8907 46.2083 53.4399 46.3343 53.82 46.0825L66.5771 37.6055C66.9572 37.3537 67.0841 36.808 66.8306 36.4305L66.5771 36.0527C66.3238 35.6751 65.7746 35.5491 65.3944 35.8009L52.6372 44.2779C52.257 44.5296 52.1304 45.0334 52.3839 45.4529Z" fill="black"/>
<path d="M287.249 45.7057C286.996 45.9577 286.871 46.3772 286.955 46.7131C287.165 47.7202 287.292 48.8112 287.292 50.0284C287.292 52.3785 286.871 54.3928 286.026 56.0714C285.181 57.75 283.996 59.1768 282.518 60.268C281.04 61.359 279.265 62.1984 277.238 62.702C275.211 63.2475 273.056 63.4993 270.692 63.4993C268.325 63.4993 266.129 63.2475 264.102 62.702C262.073 62.1565 260.299 61.359 258.82 60.268C257.301 59.1768 256.16 57.75 255.315 56.0714C254.47 54.3928 254.048 52.3366 254.048 50.0284C254.048 48.4755 254.258 47.0487 254.638 45.7898C255.019 44.5309 255.568 43.3978 256.287 42.3906C257.005 41.3833 257.85 40.5021 258.863 39.7887C259.877 39.0753 261.018 38.4457 262.244 37.9422C263.467 37.4386 264.82 37.103 266.255 36.8512C267.692 36.5994 269.17 36.5153 270.733 36.5153C273.056 36.5153 275.254 36.7671 277.281 37.3128C277.366 37.3128 277.45 37.3548 277.491 37.3548C277.746 37.4386 278.042 37.3548 278.252 37.1449L278.507 36.8931C278.928 36.4734 278.76 35.7181 278.167 35.5921C275.887 35.0046 273.396 34.7109 270.776 34.7109C269.002 34.7109 267.312 34.8367 265.706 35.0885C264.102 35.3403 262.581 35.76 261.187 36.3055C259.793 36.8512 258.526 37.5646 257.385 38.3619C256.244 39.2011 255.274 40.1663 254.47 41.2994C253.668 42.4326 253.035 43.7334 252.611 45.1602C252.146 46.5871 251.935 48.1818 251.935 49.9445C251.935 52.5884 252.399 54.8963 253.372 56.7848C254.344 58.7152 255.652 60.31 257.385 61.5689C259.116 62.8278 261.102 63.7511 263.383 64.3387C265.706 64.9261 268.157 65.2198 270.817 65.2198C273.48 65.2198 275.928 64.9261 278.211 64.3387C280.491 63.7511 282.477 62.8278 284.167 61.5689C285.855 60.31 287.165 58.7152 288.137 56.7848C289.108 54.8544 289.572 52.5884 289.572 49.9445C289.572 48.6015 289.447 47.3424 289.194 46.1674C288.898 45.412 287.884 45.0764 287.249 45.7057Z" fill="black"/>
<path d="M284.124 40.9224C284.731 40.9224 285.222 40.434 285.222 39.8314C285.222 39.2287 284.731 38.7402 284.124 38.7402C283.516 38.7402 283.026 39.2287 283.026 39.8314C283.026 40.434 283.516 40.9224 284.124 40.9224Z" fill="black"/>
<path d="M88.4585 73.6988C88.1207 73.6988 87.8248 73.8665 87.6137 74.1183C79.4609 85.1971 66.4082 91.45 52.6373 90.9045C31.305 90.0653 13.9435 72.8174 13.1409 51.6249C12.7185 40.3779 16.7737 29.7607 24.6308 21.6614C32.4878 13.562 43.006 9.07171 54.3269 9.07171C67.422 9.07171 79.8413 15.3665 87.6137 25.8999C87.8248 26.1517 88.1207 26.3195 88.4585 26.3195C88.8386 26.3195 89.2188 26.1097 89.3878 25.774C89.5568 25.4383 89.5147 25.0186 89.3033 24.6829C80.8549 13.2263 67.3375 6.63771 53.102 7.0154C41.9501 7.30916 31.4317 11.8834 23.5325 19.8568C15.6754 27.8303 11.24 38.2796 11.0711 49.4006C10.9021 60.9832 15.3375 71.9361 23.5325 80.2034C31.7274 88.4705 42.7104 93.0447 54.3691 93.0447C68.0978 93.0447 81.1929 86.4563 89.3457 75.3774C89.5992 75.0416 89.5992 74.6218 89.4302 74.2862C89.2188 73.9084 88.881 73.6988 88.4585 73.6988Z" fill="url(#paint0_radial_1717_827)"/>
<defs>
<radialGradient id="paint0_radial_1717_827" cx="0" cy="0" r="1" gradientUnits="userSpaceOnUse" gradientTransform="translate(37.0011 96.6907) rotate(-54.3815) scale(89.0635 188.241)">
<stop/>
<stop offset="1" stop-opacity="0"/>
</radialGradient>
</defs>
</svg>
